<svg width="96" height="96" viewBox="0 0 96 96" fill="none" xmlns="http://www.w3.org/2000/svg">
<g clip-path="url(#clip0_2914_10653)">
<path d="M48.2685 90.7474C48.2685 90.7474 87.4413 75.2515 87.4413 59.563V5.09561H9.0957V59.563C9.0957 75.2515 48.2685 90.7474 48.2685 90.7474Z" fill="#1A1A1A"/>
<path d="M87.4413 5.09561V59.563C87.4413 75.2515 48.2684 90.7474 48.2684 90.7474C48.2684 90.7474 9.09561 75.2515 9.09561 59.563V5.09561H87.4413ZM89.5369 3H7V59.563C7 66.8577 13.9335 74.6877 27.6092 82.8317C37.4349 88.6846 47.0907 92.5303 47.4976 92.6902L48.2684 92.9957L49.0393 92.6902C49.4461 92.5303 59.1019 88.686 68.9276 82.8317C82.6034 74.6834 89.5369 66.8534 89.5369 59.563V3Z" fill="#1A1A1A"/>
<path d="M86.1323 6.40466V59.563C86.1323 65.4844 79.5899 72.515 67.2104 79.8953C58.8322 84.8902 50.3499 88.479 48.2685 89.3341C46.1872 88.4776 37.7048 84.8902 29.3266 79.8953C16.9471 72.515 10.4047 65.4844 10.4047 59.563V6.40466H86.1323ZM87.4413 5.09561H9.0957V59.563C9.0957 75.2515 48.2685 90.7474 48.2685 90.7474C48.2685 90.7474 87.4413 75.2515 87.4413 59.563V5.09561Z" fill="white"/>
<path d="M40.5856 41.312H32.2502V70.238H51.4505V63.3688H40.5856V41.312Z" fill="white"/>
<path d="M56.9338 41.3134L46.8711 49.5103L51.2793 54.9349L54.7696 52.0542C55.1864 51.683 55.5671 51.3185 55.9116 50.9607C55.8631 52.1955 55.8403 53.5302 55.8403 54.9578V70.2395H64.2912V41.3134H56.9338Z" fill="white"/>
<path fill-rule="evenodd" clip-rule="evenodd" d="M72.1509 34.4956H24.3857V33.6391H72.1509V34.4956Z" fill="#6D6D6D"/>
<path d="M25.8348 29.9789C25.7439 29.976 25.6537 29.9967 25.5732 30.0389C25.4926 30.0812 25.4244 30.1436 25.3751 30.2201C25.2545 30.4203 25.1968 30.652 25.2095 30.8853C25.2095 31.4744 25.4337 31.769 25.8819 31.769C26.0148 31.7687 26.147 31.7495 26.2745 31.7119C26.4043 31.6735 26.532 31.6282 26.657 31.5763V32.2743C26.3838 32.3909 26.089 32.4488 25.792 32.4442C25.3294 32.4442 24.9754 32.3105 24.7299 32.0431C24.4843 31.7756 24.3616 31.3888 24.3616 30.8825C24.3549 30.594 24.416 30.308 24.54 30.0474C24.6513 29.8153 24.8305 29.6226 25.0539 29.4949C25.295 29.3609 25.5676 29.2938 25.8434 29.3008C26.1716 29.2999 26.4957 29.3736 26.7912 29.5163L26.5371 30.1673C26.4277 30.1146 26.3146 30.0698 26.1988 30.0331C26.0811 29.9957 25.9582 29.9774 25.8348 29.9789Z" fill="#6D6D6D"/>
<path d="M29.2523 32.4014H27.4365V29.3451H29.2523V30.0074H28.2631V30.4885H29.1795V31.1523H28.2631V31.7233H29.2523V32.4014Z" fill="#6D6D6D"/>
<path d="M30.8669 31.2836V32.3957H30.0417V29.3451H31.041C31.8718 29.3451 32.2872 29.6463 32.2872 30.2487C32.2883 30.4207 32.24 30.5894 32.1482 30.7349C32.0564 30.8803 31.9248 30.9965 31.7691 31.0695L32.6598 32.4014H31.7234L31.0767 31.2836H30.8669ZM30.8669 30.6627H31.0225C31.308 30.6627 31.4507 30.5356 31.4507 30.2801C31.4507 30.0702 31.308 29.9646 31.0225 29.9646H30.8669V30.6627Z" fill="#6D6D6D"/>
<path d="M34.4757 32.4014H33.6492V30.0203H32.9026V29.3451H35.2195V30.0203H34.4757V32.4014Z" fill="#6D6D6D"/>
<path d="M35.8489 32.4014V29.3451H36.6783V32.4014H35.8489Z" fill="#6D6D6D"/>
<path d="M38.3513 32.4014H37.5376V29.3451H39.3448V30.0074H38.3456V30.5913H39.2749V31.2537H38.3584L38.3513 32.4014Z" fill="#6D6D6D"/>
<path d="M40.0559 32.4014V29.3451H40.8867V32.4014H40.0559Z" fill="#6D6D6D"/>
<path d="M43.1079 29.9789C43.017 29.976 42.9268 29.9967 42.8463 30.0389C42.7657 30.0812 42.6975 30.1436 42.6482 30.2201C42.5276 30.4203 42.4699 30.652 42.4826 30.8853C42.4826 31.4744 42.7068 31.769 43.155 31.769C43.2879 31.7687 43.4201 31.7495 43.5476 31.7119C43.6774 31.6735 43.8051 31.6282 43.9301 31.5763V32.2743C43.6569 32.3909 43.3621 32.4488 43.0651 32.4442C42.6025 32.4442 42.2499 32.31 42.003 32.0431C41.756 31.7761 41.6347 31.3878 41.6347 30.8825C41.6287 30.5941 41.6898 30.3082 41.8131 30.0474C41.9253 29.8159 42.1043 29.6235 42.327 29.4949C42.5681 29.3609 42.8407 29.2938 43.1165 29.3008C43.4447 29.2999 43.7688 29.3736 44.0643 29.5163L43.8117 30.1673C43.7017 30.1146 43.5882 30.0697 43.4719 30.0331C43.3542 29.9957 43.2313 29.9774 43.1079 29.9789Z" fill="#6D6D6D"/>
<path d="M46.6682 32.4014L46.5169 31.8304H45.5176L45.362 32.4014H44.4541L45.4534 29.3322H46.5554L47.5661 32.4014H46.6682ZM46.3456 31.1523L46.2142 30.6498C46.1828 30.5384 46.1457 30.3957 46.1029 30.2215C46.0586 30.0445 46.0301 29.9175 46.0158 29.8404C46.003 29.9118 45.9787 30.0288 45.9416 30.1916C45.9045 30.3543 45.8231 30.6769 45.6961 31.1566L46.3456 31.1523Z" fill="#6D6D6D"/>
<path d="M49.2235 32.4014H48.397V30.0203H47.6504V29.3451H49.9673V30.0203H49.2235V32.4014Z" fill="#6D6D6D"/>
<path d="M52.4083 32.4014H50.5896V29.3451H52.4083V30.0074H51.409V30.4885H52.3255V31.1523H51.409V31.7233H52.4083V32.4014Z" fill="#6D6D6D"/>
<path d="M55.8415 29.9789C55.7505 29.9757 55.6603 29.9962 55.5797 30.0386C55.4991 30.0809 55.4309 30.1434 55.3819 30.2201C55.2613 30.4203 55.2036 30.652 55.2163 30.8853C55.2163 31.4744 55.4399 31.769 55.8872 31.769C56.0206 31.7688 56.1533 31.7496 56.2812 31.7119C56.411 31.6735 56.5387 31.6282 56.6638 31.5763V32.2743C56.39 32.3911 56.0948 32.4489 55.7973 32.4442C55.3357 32.4442 54.9822 32.3105 54.7366 32.0431C54.4911 31.7747 54.3669 31.3878 54.3669 30.8825C54.3607 30.5939 54.4223 30.3078 54.5468 30.0474C54.658 29.8153 54.8373 29.6226 55.0607 29.4949C55.3018 29.3609 55.5743 29.2938 55.8501 29.3008C56.1783 29.3001 56.5024 29.3738 56.798 29.5163L56.5482 30.1673C56.4387 30.1146 56.3256 30.0698 56.2098 30.0331C56.0908 29.9953 55.9664 29.977 55.8415 29.9789Z" fill="#6D6D6D"/>
<path d="M60.2511 30.8696C60.2511 31.3836 60.1241 31.7747 59.8728 32.0431C59.6216 32.3115 59.2504 32.4442 58.7637 32.4442C58.2769 32.4442 57.9171 32.31 57.6602 32.0402C57.4032 31.7704 57.2776 31.3793 57.2776 30.8654C57.2776 30.3515 57.4046 29.9674 57.6587 29.6991C57.9128 29.4307 58.2826 29.2965 58.7679 29.2965C59.2533 29.2965 59.6244 29.4293 59.8743 29.6962C60.1241 29.9632 60.2511 30.3529 60.2511 30.8696ZM58.147 30.8696C58.147 31.4606 58.3525 31.7561 58.7637 31.7561C58.8531 31.7627 58.9428 31.7464 59.0243 31.7086C59.1057 31.6709 59.1762 31.6131 59.229 31.5406C59.3451 31.337 59.3978 31.1034 59.3803 30.8696C59.3973 30.634 59.3441 30.3985 59.2276 30.193C59.1758 30.1206 59.1064 30.0626 59.026 30.0244C58.9456 29.9862 58.8568 29.9691 58.7679 29.9746C58.3539 29.9746 58.147 30.2729 58.147 30.8696Z" fill="#6D6D6D"/>
<path d="M63.5871 29.3451V31.1851C63.5977 31.3551 63.573 31.5254 63.5145 31.6854C63.4561 31.8453 63.3651 31.9914 63.2474 32.1145C63.0218 32.3343 62.6954 32.4442 62.2681 32.4442C61.8408 32.4442 61.5206 32.3376 61.3074 32.1245C61.1905 32.0027 61.1003 31.858 61.0426 31.6995C60.9848 31.5409 60.9607 31.3721 60.9719 31.2037V29.3479H61.8013V31.1409C61.7877 31.3066 61.8304 31.4721 61.9226 31.6106C62.02 31.7044 62.15 31.7568 62.2852 31.7568C62.4205 31.7568 62.5504 31.7044 62.6478 31.6106C62.7358 31.4684 62.7758 31.3018 62.762 31.1352V29.3451H63.5871Z" fill="#6D6D6D"/>
<path d="M65.2645 31.2836V32.3957H64.438V29.3451H65.4373C66.2681 29.3451 66.6835 29.6463 66.6835 30.2487C66.6846 30.4209 66.6362 30.5898 66.544 30.7353C66.4519 30.8808 66.32 30.9968 66.1639 31.0695L67.0546 32.4014H66.1182L65.4729 31.2836H65.2645ZM65.2645 30.6627H65.4187C65.7042 30.6627 65.847 30.5356 65.847 30.2801C65.847 30.0702 65.7042 29.9646 65.4187 29.9646H65.256L65.2645 30.6627Z" fill="#6D6D6D"/>
<path d="M69.6485 31.4735C69.6524 31.6524 69.6027 31.8284 69.5057 31.9788C69.4037 32.1312 69.2593 32.2503 69.0903 32.3214C68.8887 32.4071 68.6712 32.449 68.4522 32.4442C68.2804 32.4469 68.1087 32.4326 67.9397 32.4014C67.7915 32.3688 67.6477 32.3185 67.5115 32.2515V31.5149C67.6679 31.5957 67.8325 31.6593 68.0025 31.7048C68.155 31.748 68.3124 31.771 68.4708 31.7733C68.5652 31.7806 68.6596 31.7582 68.7406 31.709C68.7672 31.6908 68.789 31.6663 68.8039 31.6376C68.8188 31.609 68.8265 31.5772 68.8262 31.5449C68.827 31.5055 68.8149 31.4669 68.792 31.4349C68.7609 31.3966 68.7232 31.3642 68.6806 31.3393C68.6292 31.3079 68.495 31.2422 68.2738 31.1437C68.1134 31.0758 67.9627 30.987 67.8255 30.8796C67.7298 30.8008 67.654 30.7006 67.6043 30.587C67.553 30.4631 67.5282 30.3299 67.5315 30.1959C67.5257 30.0694 67.5507 29.9434 67.6044 29.8288C67.6581 29.7141 67.7389 29.6142 67.8398 29.5378C68.0867 29.3668 68.3837 29.2834 68.6835 29.3008C69.0185 29.3046 69.3489 29.3796 69.6528 29.5206L69.3958 30.1587C69.166 30.0417 68.914 29.9745 68.6564 29.9617C68.5742 29.9547 68.492 29.9748 68.4222 30.0188C68.3989 30.0346 68.3799 30.0558 68.367 30.0808C68.354 30.1057 68.3475 30.1335 68.348 30.1616C68.3497 30.194 68.3592 30.2256 68.3756 30.2537C68.392 30.2817 68.4148 30.3055 68.4422 30.3229C68.6031 30.4222 68.7716 30.5086 68.9461 30.5813C69.1574 30.6621 69.346 30.7929 69.4957 30.9624C69.6013 31.1114 69.655 31.291 69.6485 31.4735Z" fill="#6D6D6D"/>
<path d="M72.1752 32.4014H70.3608V29.3451H72.1752V30.0074H71.1874V30.4885H72.1081V31.1523H71.1931V31.7233H72.1809L72.1752 32.4014Z" fill="#6D6D6D"/>
<path d="M27.0467 25.692C24.9626 25.692 23.5579 24.3087 23.5579 23.0054V15.0298C23.5579 13.7265 24.9626 12.3446 27.0467 12.3446C29.0995 12.3446 30.4428 13.7265 30.4428 15.0298V17.5065H27.6335V15.4152C27.6337 15.3399 27.6183 15.2654 27.5884 15.1963C27.5584 15.1272 27.5145 15.0651 27.4595 15.0138C27.4044 14.9624 27.3393 14.923 27.2683 14.898C27.1973 14.873 27.1218 14.863 27.0467 14.8685C26.6913 14.8685 26.43 15.0783 26.43 15.4152V22.62C26.43 22.9583 26.6913 23.1667 27.0467 23.1667C27.1219 23.1724 27.1974 23.1625 27.2685 23.1376C27.3396 23.1127 27.4048 23.0733 27.4599 23.0219C27.515 22.9705 27.5589 22.9083 27.5888 22.8391C27.6187 22.7699 27.6339 22.6953 27.6335 22.62V20.5301H30.4428V23.004C30.4428 24.3087 29.0995 25.692 27.0467 25.692Z" fill="white"/>
<path d="M33.963 19.762V25.4508H31.2507V15.7864H33.8203L33.9887 16.7985C34.3899 16.2032 34.9466 15.7864 36.1971 15.7864V18.0704C34.6882 18.069 33.963 18.8941 33.963 19.762Z" fill="white"/>
<path d="M40.0286 25.6106C38.2071 25.6106 36.7253 24.6785 36.7253 23.2466V18.1661C36.7253 16.7186 38.2071 15.7864 40.0286 15.7864C41.8502 15.7864 43.3319 16.7186 43.3319 18.1661V23.2466C43.3319 24.6785 41.8445 25.6106 40.0286 25.6106ZM40.6154 18.2774C40.6154 17.9562 40.3527 17.812 40.0286 17.812C39.7046 17.812 39.4576 17.9548 39.4576 18.2774V23.1182C39.4576 23.4394 39.7046 23.585 40.0286 23.585C40.3527 23.585 40.6154 23.4422 40.6154 23.1182V18.2774Z" fill="white"/>
<path d="M47.222 25.6106C45.2306 25.6106 44.0415 24.6785 44.0415 23.2466V22.2659H46.5268V23.0868C46.5268 23.408 46.7752 23.6335 47.1764 23.6335C47.5775 23.6335 47.8088 23.4722 47.8088 22.9197C47.8088 22.0632 47.1764 21.8106 45.7403 21.054C44.397 20.3787 44.0886 19.4309 44.0886 18.4002C44.0886 16.4231 45.5161 15.7807 47.222 15.7807C49.0593 15.7807 50.3255 16.7128 50.3255 18.1604V19.0611H47.8544V18.3202C47.8544 17.9991 47.6846 17.8063 47.2834 17.8063C46.8552 17.8063 46.651 17.999 46.651 18.4659C46.651 19.1725 47.0522 19.2367 48.1014 19.7849C50.0628 20.7656 50.3712 21.9861 50.3712 22.9997C50.3712 24.3573 49.4604 25.6106 47.222 25.6106Z" fill="white"/>
<path d="M54.1527 25.6106C52.1542 25.6106 50.9736 24.6785 50.9736 23.2466V22.2659H53.459V23.0868C53.459 23.408 53.7059 23.6335 54.1071 23.6335C54.5082 23.6335 54.7395 23.4722 54.7395 22.9197C54.7395 22.0632 54.1071 21.8106 52.671 21.054C51.3277 20.3787 51.0193 19.4309 51.0193 18.4002C51.0193 16.4231 52.4554 15.7807 54.1599 15.7807C55.9971 15.7807 57.2633 16.7128 57.2633 18.1604V19.0611H54.7937V18.3202C54.7937 17.9991 54.6238 17.8063 54.2227 17.8063C53.7944 17.8063 53.5889 17.999 53.5889 18.4659C53.5889 19.1725 53.99 19.2367 55.0407 19.7849C57.0007 20.7656 57.309 21.9861 57.309 22.9997C57.3019 24.3573 56.3911 25.6106 54.1527 25.6106Z" fill="white"/>
<path d="M60.8991 14.8671V17.7949H62.9519V20.1746H60.8991V25.4493H58.0583V12.583H63.6471V14.8671H60.8991Z" fill="white"/>
<path d="M64.2939 14.8671V12.583H67.0277V14.8671H64.2939ZM64.2939 25.4522V15.962H67.0277V25.4508L64.2939 25.4522Z" fill="white"/>
<path d="M71.5743 17.892V22.8127C71.5743 23.0867 71.8355 23.2795 72.1453 23.2795H72.8591V25.4507H71.5629C69.8341 25.4507 68.8606 24.2602 68.8606 23.0382V17.892H67.6829V15.962H68.8549V14.3217H71.5672V15.962H72.9719V17.892H71.5743Z" fill="white"/>
<path d="M73.971 16.0091C74.1118 16.0091 74.2469 16.065 74.3465 16.1646C74.4461 16.2642 74.502 16.3993 74.502 16.5401C74.502 16.6809 74.4461 16.816 74.3465 16.9156C74.2469 17.0152 74.1118 17.0711 73.971 17.0711C73.8301 17.0711 73.6951 17.0152 73.5955 16.9156C73.4959 16.816 73.4399 16.6809 73.4399 16.5401C73.4399 16.3993 73.4959 16.2642 73.5955 16.1646C73.6951 16.065 73.8301 16.0091 73.971 16.0091ZM73.971 16.1161C73.8708 16.1326 73.7798 16.1842 73.7141 16.2616C73.6485 16.339 73.6124 16.4372 73.6124 16.5387C73.6124 16.6402 73.6485 16.7384 73.7141 16.8158C73.7798 16.8932 73.8708 16.9447 73.971 16.9612C74.0252 16.9609 74.0788 16.9497 74.1286 16.9282C74.1784 16.9068 74.2234 16.8756 74.261 16.8365C74.2985 16.7973 74.3278 16.7511 74.3471 16.7004C74.3665 16.6497 74.3755 16.5957 74.3735 16.5415C74.3758 16.4865 74.3671 16.4315 74.3477 16.3799C74.3283 16.3283 74.2988 16.2812 74.2608 16.2412C74.2229 16.2013 74.1773 16.1694 74.1268 16.1474C74.0762 16.1254 74.0218 16.1138 73.9667 16.1133L73.971 16.1161ZM73.891 16.8128H73.7683V16.2832C73.8354 16.2735 73.9031 16.2683 73.971 16.2674C74.0343 16.2606 74.0982 16.2752 74.1523 16.3088C74.1693 16.3223 74.183 16.3394 74.1924 16.359C74.2018 16.3785 74.2066 16.3999 74.2065 16.4216C74.204 16.4517 74.192 16.4802 74.1722 16.503C74.1525 16.5259 74.126 16.5418 74.0966 16.5487C74.148 16.5644 74.1737 16.6072 74.1908 16.6771C74.1971 16.7221 74.2101 16.7659 74.2294 16.8071H74.0995C74.0788 16.7662 74.0648 16.7224 74.0581 16.6771C74.0481 16.6229 74.0167 16.5972 73.9481 16.5972H73.891V16.8128ZM73.891 16.5158H73.9481C74.0167 16.5158 74.0709 16.493 74.0709 16.4388C74.0709 16.3845 74.0352 16.3574 73.9581 16.3574C73.9356 16.3573 73.9131 16.3597 73.891 16.3645V16.5158Z" fill="white"/>
</g>
<defs>
<clipPath id="clip0_2914_10653">
<rect width="82.5369" height="90" fill="white" transform="translate(7 3)"/>
</clipPath>
</defs>
</svg>
