<?xml version="1.0" encoding="UTF-8"?>
<svg xmlns="http://www.w3.org/2000/svg" id="CF_L3" data-name="CF L3" viewBox="0 0 578.18 630.46">
  <defs>
    <style>.cls-1{fill:#1a1a1a;}.cls-2{fill:#fff;}.cls-3{fill:none;stroke:#6d6d6d;stroke-miterlimit:10;stroke-width:6px;}.cls-4{fill:#6d6d6d;}</style>
  </defs>
  <title>CF_L3</title>
  <g id="_04_-_BADGE_BG" data-name="04 - BADGE BG">
    <g id="Shield">
      <path class="cls-1" d="M500,801.55S774.41,693,774.41,583.1V201.55H225.59V583.1C225.59,693,500,801.55,500,801.55Z" transform="translate(-210.91 -186.87)"></path>
      <path class="cls-1" d="M774.41,201.55V583.1C774.41,693,500,801.55,500,801.55S225.59,693,225.59,583.1V201.55H774.41m14.68-14.68H210.91V583.1c0,51.1,48.57,105.95,144.37,163,68.83,41,136.47,67.94,139.32,69.06l5.4,2.14,5.4-2.14c2.85-1.12,70.49-28.05,139.32-69.06,95.8-57.08,144.37-111.93,144.37-163V186.87Z" transform="translate(-210.91 -186.87)"></path>
      <path class="cls-2" d="M765.24,210.72V583.1c0,41.48-45.83,90.73-132.55,142.43C574,760.52,514.58,785.66,500,791.65c-14.58-6-74-31.13-132.69-66.12-86.72-51.7-132.55-100.95-132.55-142.43V210.72H765.24m9.17-9.17H225.59V583.1C225.59,693,500,801.55,500,801.55S774.41,693,774.41,583.1V201.55Z" transform="translate(-210.91 -186.87)"></path>
    </g>
  </g>
  <g id="_03_-_ICON" data-name="03 - ICON">
    <g id="L3">
      <polygon class="cls-2" points="201.05 268.38 142.66 268.38 142.66 471.01 277.16 471.01 277.16 422.89 201.05 422.89 201.05 268.38"></polygon>
      <path class="cls-2" d="M603.28,551c10.7-4.1,19.26-9.88,25.52-17.23,7.84-9.21,11.82-20.37,11.82-33.18,0-15-6.23-27-18.51-35.58-12-8.37-28.67-12.61-49.55-12.61-14.31,0-27.2,1.57-38.32,4.68a110.74,110.74,0,0,0-32.85,15.76l-2,1.36,24.76,39.84,2.12-1.33c13.05-8.18,25.8-12.33,37.88-12.33,6.24,0,11.23,1.15,14.82,3.4,3.26,2.06,4.85,5.17,4.85,9.51,0,12.16-12.85,18.32-38.19,18.32H530.72v45.15h14.67c9.76,0,17.75.73,23.75,2.16,5.71,1.37,9.84,3.36,12.29,5.92s3.5,6.06,3.5,10.78c0,6.15-2.24,10.52-6.85,13.34-4.94,3-13.12,4.57-24.31,4.57a106.6,106.6,0,0,1-24.23-3.11,115.22,115.22,0,0,1-25.87-9.6L500,599v50.14l1.6.61a157.76,157.76,0,0,0,29.88,8.52,181.69,181.69,0,0,0,30,2.33c26.28,0,47.18-5.48,62.1-16.29,15.17-11,22.86-26.28,22.86-45.42C646.43,573,631.93,556.89,603.28,551Z" transform="translate(-210.91 -186.87)"></path>
    </g>
  </g>
  <g id="_02_-_COURSE_INFO" data-name="02 - COURSE INFO">
    <line id="_02_-_Underline_Short" data-name="02 - Underline Short" class="cls-3" x1="168.29" y1="217.63" x2="409.89" y2="217.63"></line>
    <g id="_01-_CERTIFICATION" data-name="01- CERTIFICATION">
      <path class="cls-4" d="M389.68,375.86a3.69,3.69,0,0,0-3.22,1.69,8.17,8.17,0,0,0-1.16,4.66q0,6.19,4.71,6.19a9.78,9.78,0,0,0,2.75-.4,26.87,26.87,0,0,0,2.68-.95v4.89a14.86,14.86,0,0,1-6.06,1.19c-3.24,0-5.71-.94-7.44-2.81s-2.58-4.59-2.58-8.13a12.92,12.92,0,0,1,1.25-5.85,8.94,8.94,0,0,1,3.6-3.87,10.82,10.82,0,0,1,5.53-1.36,15.18,15.18,0,0,1,6.64,1.51l-1.77,4.56a18.63,18.63,0,0,0-2.38-.94A8.11,8.11,0,0,0,389.68,375.86Z" transform="translate(-210.91 -186.87)"></path>
      <path class="cls-4" d="M413.62,392.83H400.91V371.42h12.71v4.64h-6.93v3.37h6.42v4.65h-6.42v4h6.93Z" transform="translate(-210.91 -186.87)"></path>
      <path class="cls-4" d="M424.93,385v7.79h-5.78V371.42h7q8.73,0,8.73,6.33a6.31,6.31,0,0,1-3.63,5.75l6.24,9.33h-6.56L426.4,385Zm0-4.35H426c2,0,3-.89,3-2.68,0-1.47-1-2.21-3-2.21h-1.15Z" transform="translate(-210.91 -186.87)"></path>
      <path class="cls-4" d="M450.21,392.83h-5.79V376.15h-5.23v-4.73h16.23v4.73h-5.21Z" transform="translate(-210.91 -186.87)"></path>
      <path class="cls-4" d="M459.78,392.83V371.42h5.81v21.41Z" transform="translate(-210.91 -186.87)"></path>
      <path class="cls-4" d="M477.36,392.83h-5.7V371.42h12.66v4.64h-7v4.09h6.42v4.64h-6.42Z" transform="translate(-210.91 -186.87)"></path>
      <path class="cls-4" d="M489.3,392.83V371.42h5.82v21.41Z" transform="translate(-210.91 -186.87)"></path>
      <path class="cls-4" d="M510.69,375.86a3.69,3.69,0,0,0-3.23,1.69,8.17,8.17,0,0,0-1.15,4.66c0,4.13,1.56,6.19,4.7,6.19a9.73,9.73,0,0,0,2.75-.4,26.87,26.87,0,0,0,2.68-.95v4.89a14.83,14.83,0,0,1-6.06,1.19q-4.85,0-7.44-2.81t-2.58-8.13a13.05,13.05,0,0,1,1.25-5.85,9,9,0,0,1,3.6-3.87,10.85,10.85,0,0,1,5.53-1.36,15.18,15.18,0,0,1,6.64,1.51l-1.77,4.56a17.54,17.54,0,0,0-2.38-.94A8.09,8.09,0,0,0,510.69,375.86Z" transform="translate(-210.91 -186.87)"></path>
      <path class="cls-4" d="M535.62,392.83l-1.06-4h-6.95l-1.09,4h-6.35l7-21.5h7.72l7.08,21.5Zm-2.26-8.75-.92-3.52c-.21-.78-.48-1.79-.78-3s-.51-2.13-.61-2.67c-.09.5-.26,1.32-.52,2.46s-.83,3.4-1.72,6.76Z" transform="translate(-210.91 -186.87)"></path>
      <path class="cls-4" d="M553.52,392.83h-5.79V376.15H542.5v-4.73h16.23v4.73h-5.21Z" transform="translate(-210.91 -186.87)"></path>
      <path class="cls-4" d="M563.09,392.83V371.42h5.81v21.41Z" transform="translate(-210.91 -186.87)"></path>
      <path class="cls-4" d="M595,382.1q0,5.4-2.66,8.22t-7.76,2.81q-5,0-7.73-2.83c-1.79-1.88-2.68-4.63-2.68-8.23s.89-6.29,2.67-8.17,4.37-2.82,7.77-2.82,6,.93,7.75,2.8S595,378.48,595,382.1Zm-14.74,0q0,6.21,4.32,6.21a3.72,3.72,0,0,0,3.26-1.51,8.25,8.25,0,0,0,1.06-4.7,8.39,8.39,0,0,0-1.07-4.74,3.68,3.68,0,0,0-3.22-1.53Q580.24,375.83,580.24,382.1Z" transform="translate(-210.91 -186.87)"></path>
      <path class="cls-4" d="M620.64,392.83h-7.58l-7.83-15.08h-.13c.19,2.37.28,4.18.28,5.43v9.65h-5.13V371.42h7.56l7.79,14.88h.09c-.13-2.16-.2-3.89-.2-5.2v-9.68h5.15Z" transform="translate(-210.91 -186.87)"></path>
    </g>
  </g>
  <g id="_01_-_CrossFit_Logo" data-name="01 - CrossFit Logo">
    <path class="cls-2" d="M351.34,345.83c-14.6,0-24.44-9.69-24.44-18.82V271.14c0-9.13,9.84-18.81,24.44-18.81,14.38,0,23.79,9.68,23.79,18.81v17.35H355.45V273.84a3.83,3.83,0,0,0-4.11-3.83c-2.49,0-4.32,1.47-4.32,3.83v50.47c0,2.37,1.83,3.83,4.32,3.83a3.82,3.82,0,0,0,4.11-3.83V309.67h19.68V327C375.13,336.14,365.72,345.83,351.34,345.83Z" transform="translate(-210.91 -186.87)"></path>
    <path class="cls-2" d="M399.79,304.29v39.85h-19v-67.7h18l1.18,7.09c2.81-4.17,6.71-7.09,15.47-7.09v16C404.87,292.43,399.79,298.21,399.79,304.29Z" transform="translate(-210.91 -186.87)"></path>
    <path class="cls-2" d="M442.28,345.26c-12.76,0-23.14-6.53-23.14-16.56V293.11c0-10.14,10.38-16.67,23.14-16.67s23.14,6.53,23.14,16.67V328.7C465.42,338.73,455,345.26,442.28,345.26Zm4.11-51.37c0-2.25-1.84-3.26-4.11-3.26s-4,1-4,3.26V327.8c0,2.25,1.73,3.27,4,3.27s4.11-1,4.11-3.27Z" transform="translate(-210.91 -186.87)"></path>
    <path class="cls-2" d="M492.67,345.26c-13.95,0-22.28-6.53-22.28-16.56v-6.87H487.8v5.75c0,2.25,1.74,3.83,4.55,3.83s4.43-1.13,4.43-5c0-6-4.43-7.77-14.49-13.07-9.41-4.73-11.57-11.37-11.57-18.59,0-13.85,10-18.35,21.95-18.35,12.87,0,21.74,6.53,21.74,16.67v6.31H497.1v-5.19c0-2.25-1.19-3.6-4-3.6-3,0-4.43,1.35-4.43,4.62,0,4.95,2.81,5.4,10.16,9.24,13.74,6.87,15.9,15.42,15.9,22.52C514.73,336.48,508.35,345.26,492.67,345.26Z" transform="translate(-210.91 -186.87)"></path>
    <path class="cls-2" d="M541.22,345.26c-14,0-22.27-6.53-22.27-16.56v-6.87h17.41v5.75c0,2.25,1.73,3.83,4.54,3.83s4.43-1.13,4.43-5c0-6-4.43-7.77-14.49-13.07-9.41-4.73-11.57-11.37-11.57-18.59,0-13.85,10.06-18.35,22-18.35,12.87,0,21.74,6.53,21.74,16.67v6.31h-17.3v-5.19c0-2.25-1.19-3.6-4-3.6-3,0-4.44,1.35-4.44,4.62,0,4.95,2.81,5.4,10.17,9.24,13.73,6.87,15.89,15.42,15.89,22.52C563.28,336.48,556.9,345.26,541.22,345.26Z" transform="translate(-210.91 -186.87)"></path>
    <path class="cls-2" d="M588.48,270v20.51h14.38v16.67H588.48v36.95h-19.9V254h39.15v16Z" transform="translate(-210.91 -186.87)"></path>
    <path class="cls-2" d="M612.26,270V254h19.15v16Zm0,74.15V277.67h19.15v66.47Z" transform="translate(-210.91 -186.87)"></path>
    <path class="cls-2" d="M663.26,291.19v34.47c0,1.92,1.83,3.27,4,3.27h5v15.21h-9.08c-12.11,0-18.93-8.34-18.93-16.9V291.19H636V277.67h8.21V266.18h19v11.49h9.84v13.52Z" transform="translate(-210.91 -186.87)"></path>
    <path class="cls-2" d="M680.05,278a3.72,3.72,0,1,1,0,7.44,3.72,3.72,0,1,1,0-7.44Zm0,.75a3,3,0,0,0,0,5.92,2.84,2.84,0,0,0,2.82-2.94,2.88,2.88,0,0,0-2.85-3Zm-.56,4.88h-.86v-3.71a10.93,10.93,0,0,1,1.42-.11,2,2,0,0,1,1.27.29,1,1,0,0,1,.38.79,1,1,0,0,1-.77.89v0c.36.11.54.41.66.9a3.2,3.2,0,0,0,.27.91h-.91a3,3,0,0,1-.29-.91c-.07-.38-.29-.56-.77-.56h-.4Zm0-2.08h.4c.48,0,.86-.16.86-.54s-.25-.57-.79-.57a2.13,2.13,0,0,0-.47.05Z" transform="translate(-210.91 -186.87)"></path>
  </g>
</svg>
