<svg width="96" height="96" viewBox="0 0 96 96" fill="none" xmlns="http://www.w3.org/2000/svg">
<g clip-path="url(#clip0_2914_11024)">
<path d="M47.915 89.9958C47.915 89.9958 86.7523 74.6327 86.7523 59.0785V5.07764H9.07764V59.0785C9.07764 74.6327 47.915 89.9958 47.915 89.9958Z" fill="#1A1A1A"/>
<path d="M86.7523 5.07767V59.0786C86.7523 74.6327 47.915 89.9959 47.915 89.9959C47.915 89.9959 9.07766 74.6327 9.07766 59.0786V5.07767H86.7523ZM88.83 3H7V59.0786C7 66.3108 13.8741 74.0737 27.4327 82.148C37.1743 87.9507 46.7474 91.7636 47.1507 91.9221L47.915 92.225L48.6793 91.9221C49.0826 91.7636 58.6557 87.9522 68.3973 82.148C81.9559 74.0695 88.83 66.3065 88.83 59.0786V3Z" fill="#1A1A1A"/>
<path d="M85.4545 6.37547V59.0785C85.4545 64.9492 78.9681 71.9196 66.6946 79.2367C58.3882 84.1888 49.9785 87.7469 47.915 88.5947C45.8515 87.7455 37.4417 84.1888 29.1353 79.2367C16.8618 71.9196 10.3755 64.9492 10.3755 59.0785V6.37547H85.4545ZM86.7523 5.07764H9.07764V59.0785C9.07764 74.6327 47.915 89.9958 47.915 89.9958C47.915 89.9958 86.7523 74.6327 86.7523 59.0785V5.07764Z" fill="white"/>
<path d="M34.948 40.9839H26.6826V69.6622H45.7184V62.8517H34.948V40.9839Z" fill="white"/>
<path d="M66.0663 57.8967V40.9853H58.5426L46.8054 58.1473L46.7432 58.2378V64.2486H57.8972V69.6636H66.0663V64.2486H69.1446V57.8967H66.0663ZM54.3051 57.8967L57.0381 53.8278C57.3702 53.3088 57.6835 52.7639 57.9778 52.1931C57.9778 52.2893 57.9693 52.3912 57.9651 52.5016C57.9198 53.5362 57.8972 54.3755 57.8972 54.994V57.8925L54.3051 57.8967Z" fill="white"/>
<path fill-rule="evenodd" clip-rule="evenodd" d="M65.0118 34.2258H30.8181V33.3766H65.0118V34.2258Z" fill="#6D6D6D"/>
<path d="M32.3014 29.7478C32.2113 29.7449 32.1219 29.7655 32.042 29.8074C31.9622 29.8493 31.8945 29.9112 31.8457 29.987C31.7261 30.1854 31.6689 30.4152 31.6815 30.6465C31.6815 31.2306 31.9037 31.5226 32.3481 31.5226C32.4799 31.5224 32.611 31.5033 32.7373 31.466C32.866 31.4279 32.9927 31.383 33.1166 31.3316V32.0236C32.8457 32.1392 32.5535 32.1966 32.259 32.1921C31.8004 32.1921 31.4508 32.059 31.206 31.7944C30.9611 31.5297 30.8408 31.1447 30.8408 30.6437C30.8342 30.3577 30.8948 30.0741 31.0177 29.8158C31.1285 29.586 31.3061 29.3951 31.5272 29.268C31.7663 29.1351 32.0365 29.0687 32.3099 29.0756C32.6353 29.0747 32.9566 29.1478 33.2497 29.2893L32.9992 29.9346C32.8901 29.8826 32.7775 29.8382 32.6623 29.8016C32.5457 29.7646 32.4238 29.7464 32.3014 29.7478Z" fill="#6D6D6D"/>
<path d="M35.6897 32.1495H33.8909V29.1194H35.6897V29.7761H34.7089V30.253H35.6175V30.9112H34.7089V31.4773H35.6897V32.1495Z" fill="#6D6D6D"/>
<path d="M37.2905 31.0414V32.1439H36.4724V29.1194H37.4631C38.2868 29.1194 38.6987 29.418 38.6987 30.0153C38.6997 30.1858 38.6518 30.3531 38.5608 30.4973C38.4698 30.6415 38.3393 30.7566 38.1849 30.8291L39.0681 32.1495H38.1396L37.4985 31.0414H37.2905ZM37.2905 30.4257H37.4419C37.725 30.4257 37.8665 30.2997 37.8665 30.0464C37.8665 29.8384 37.725 29.7336 37.4419 29.7336H37.2791L37.2905 30.4257Z" fill="#6D6D6D"/>
<path d="M40.8683 32.1495H40.0488V29.7888H39.3086V29.1194H41.6056V29.7888H40.8683V32.1495Z" fill="#6D6D6D"/>
<path d="M42.2227 32.1495V29.1194H43.0449V32.1495H42.2227Z" fill="#6D6D6D"/>
<path d="M44.7108 32.1495H43.9041V29.1194H45.6958V29.7761H44.7051V30.3549H45.6137V31.0116H44.7051L44.7108 32.1495Z" fill="#6D6D6D"/>
<path d="M46.4006 32.1495V29.1194H47.2243V32.1495H46.4006Z" fill="#6D6D6D"/>
<path d="M49.428 29.7478C49.3376 29.7447 49.2479 29.7651 49.1678 29.807C49.0877 29.8489 49.0198 29.9109 48.9708 29.987C48.8518 30.1856 48.7951 30.4153 48.8081 30.6465C48.8081 31.231 49.0289 31.5226 49.4733 31.5226C49.6051 31.5224 49.7361 31.5034 49.8625 31.466C49.9912 31.4279 50.1178 31.383 50.2418 31.3315V32.0236C49.9709 32.1393 49.6787 32.1967 49.3841 32.192C48.9265 32.192 48.5755 32.0595 48.3311 31.7943C48.0867 31.5292 47.965 31.1456 47.966 30.6437C47.96 30.3577 48.0206 30.0743 48.1429 29.8157C48.2541 29.5863 48.4316 29.3955 48.6524 29.268C48.8915 29.1353 49.1617 29.0689 49.4351 29.0755C49.7605 29.0747 50.0818 29.1478 50.3748 29.2892L50.1243 29.9346C50.0154 29.8821 49.9028 29.8377 49.7875 29.8016C49.6713 29.7646 49.5499 29.7465 49.428 29.7478Z" fill="#6D6D6D"/>
<path d="M52.9564 32.1496L52.8064 31.5835H51.8228L51.6685 32.1496H50.7698L51.7605 29.1067H52.8531L53.8551 32.1496H52.9564ZM52.6366 30.9112L52.5064 30.413C52.4766 30.3026 52.4384 30.1597 52.396 29.9884C52.3535 29.8172 52.3238 29.687 52.3096 29.6105C52.2969 29.6813 52.2728 29.7974 52.236 29.9587C52.1992 30.12 52.1186 30.4399 51.9926 30.9154L52.6366 30.9112Z" fill="#6D6D6D"/>
<path d="M55.4898 32.1495H54.6704V29.7888H53.9302V29.1194H56.2272V29.7888H55.4898V32.1495Z" fill="#6D6D6D"/>
<path d="M56.8442 32.1495V29.1194H57.6665V32.1495H56.8442Z" fill="#6D6D6D"/>
<path d="M61.3604 30.631C61.3604 31.1405 61.2349 31.5283 60.984 31.7943C60.733 32.0604 60.3669 32.193 59.8857 32.192C59.4139 32.192 59.0492 32.0585 58.7917 31.7915C58.5383 31.5254 58.4124 31.1362 58.4124 30.6267C58.4124 30.1172 58.5383 29.7365 58.7902 29.4704C59.0422 29.2043 59.4087 29.0713 59.8899 29.0713C60.3711 29.0713 60.7391 29.2029 60.9868 29.4676C61.2345 29.7322 61.3604 30.1186 61.3604 30.631ZM59.2743 30.631C59.2743 31.2169 59.4781 31.5099 59.8857 31.5099C59.9744 31.5161 60.0632 31.4998 60.1439 31.4624C60.2246 31.425 60.2945 31.3678 60.3471 31.2961C60.4622 31.0943 60.5144 30.8627 60.4971 30.631C60.5139 30.3973 60.4612 30.1639 60.3457 29.9601C60.2943 29.8883 60.2255 29.8308 60.1458 29.793C60.0661 29.7551 59.978 29.7381 59.8899 29.7436C59.4776 29.7436 59.2714 30.0394 59.2714 30.631H59.2743Z" fill="#6D6D6D"/>
<path d="M64.9893 32.1495H63.9165L62.8083 30.0153H62.7899C62.8168 30.3507 62.8296 30.6069 62.8296 30.7838V32.1495H62.1035V29.1194H63.1735L64.276 31.2254H64.2887C64.2703 30.9196 64.2604 30.6748 64.2604 30.4894V29.1194H64.9893V32.1495Z" fill="#6D6D6D"/>
<path d="M26.875 25.4977C24.8087 25.4977 23.416 24.1262 23.416 22.8341V14.9268C23.416 13.6346 24.8087 12.2646 26.875 12.2646C28.9102 12.2646 30.242 13.6346 30.242 14.9268V17.3823H27.4567V15.3089C27.4569 15.2343 27.4417 15.1604 27.412 15.0919C27.3823 15.0234 27.3388 14.9618 27.2842 14.9109C27.2296 14.86 27.1651 14.8209 27.0946 14.7962C27.0242 14.7714 26.9495 14.7614 26.875 14.7668C26.5226 14.7668 26.2636 14.9749 26.2636 15.3089V22.4519C26.2636 22.7874 26.5226 22.994 26.875 22.994C26.9495 22.9997 27.0244 22.9898 27.0949 22.9651C27.1654 22.9404 27.23 22.9014 27.2847 22.8504C27.3393 22.7995 27.3828 22.7378 27.4124 22.6692C27.442 22.6006 27.4571 22.5266 27.4567 22.4519V20.3799H30.242V22.8327C30.242 24.1262 28.9102 25.4977 26.875 25.4977Z" fill="white"/>
<path d="M33.732 19.6185V25.2585H31.043V15.6769H33.5905L33.7575 16.6803C34.1552 16.0901 34.7072 15.6769 35.947 15.6769V17.9414C34.451 17.9399 33.732 18.758 33.732 19.6185Z" fill="white"/>
<path d="M39.7457 25.417C37.9398 25.417 36.4707 24.4928 36.4707 23.0733V18.0362C36.4707 16.6011 37.9398 15.6769 39.7457 15.6769C41.5516 15.6769 43.0207 16.6011 43.0207 18.0362V23.0733C43.0207 24.4928 41.546 25.417 39.7457 25.417ZM40.3274 18.1466C40.3274 17.8281 40.067 17.6852 39.7457 17.6852C39.4244 17.6852 39.1796 17.8267 39.1796 18.1466V22.9459C39.1796 23.2643 39.4244 23.4087 39.7457 23.4087C40.067 23.4087 40.3274 23.2671 40.3274 22.9459V18.1466Z" fill="white"/>
<path d="M46.8774 25.417C44.9031 25.417 43.7241 24.4928 43.7241 23.0732V22.1009H46.1882V22.9147C46.1882 23.2332 46.4344 23.4568 46.8321 23.4568C47.2298 23.4568 47.4591 23.2969 47.4591 22.7491C47.4591 21.9 46.8321 21.6494 45.4083 20.8993C44.0765 20.2299 43.7708 19.2901 43.7708 18.2683C43.7708 16.3081 45.1861 15.6712 46.8774 15.6712C48.6989 15.6712 49.9543 16.5954 49.9543 18.0305V18.9236H47.5044V18.189C47.5044 17.8706 47.336 17.6795 46.9383 17.6795C46.5137 17.6795 46.3113 17.8706 46.3113 18.3334C46.3113 19.034 46.709 19.0977 47.7492 19.6411C49.6939 20.6134 49.9996 21.8235 49.9996 22.8284C49.9996 24.1743 49.0966 25.417 46.8774 25.417Z" fill="white"/>
<path d="M53.7488 25.417C51.7674 25.417 50.5969 24.4928 50.5969 23.0732V22.1009H53.061V22.9147C53.061 23.2332 53.3058 23.4568 53.7035 23.4568C54.1012 23.4568 54.3305 23.2969 54.3305 22.7491C54.3305 21.9 53.7035 21.6494 52.2797 20.8993C50.9479 20.2299 50.6422 19.2901 50.6422 18.2683C50.6422 16.3081 52.066 15.6712 53.7559 15.6712C55.5774 15.6712 56.8327 16.5954 56.8327 18.0305V18.9236H54.3843V18.189C54.3843 17.8706 54.2159 17.6795 53.8182 17.6795C53.3936 17.6795 53.1898 17.8706 53.1898 18.3334C53.1898 19.034 53.5875 19.0977 54.6291 19.6411C56.5723 20.6134 56.878 21.8235 56.878 22.8284C56.871 24.1743 55.968 25.417 53.7488 25.417Z" fill="white"/>
<path d="M60.4375 14.7654V17.6682H62.4727V20.0275H60.4375V25.257H57.6211V12.5009H63.162V14.7654H60.4375Z" fill="white"/>
<path d="M63.8032 14.7654V12.5009H66.5135V14.7654H63.8032ZM63.8032 25.2599V15.8509H66.5135V25.2585L63.8032 25.2599Z" fill="white"/>
<path d="M71.0212 17.7645V22.643C71.0212 22.9148 71.2802 23.1058 71.5873 23.1058H72.295V25.2585H71.0099C69.2959 25.2585 68.3307 24.0781 68.3307 22.8666V17.7645H67.1631V15.851H68.3251V14.2248H71.0141V15.851H72.4068V17.7645H71.0212Z" fill="white"/>
<path d="M73.3973 15.8976C73.537 15.8976 73.6709 15.9531 73.7696 16.0519C73.8684 16.1506 73.9238 16.2845 73.9238 16.4241C73.9238 16.5638 73.8684 16.6977 73.7696 16.7964C73.6709 16.8952 73.537 16.9506 73.3973 16.9506C73.2577 16.9506 73.1238 16.8952 73.0251 16.7964C72.9263 16.6977 72.8708 16.5638 72.8708 16.4241C72.8708 16.2845 72.9263 16.1506 73.0251 16.0519C73.1238 15.9531 73.2577 15.8976 73.3973 15.8976ZM73.3973 16.0038C73.2981 16.0202 73.2078 16.0713 73.1427 16.148C73.0776 16.2247 73.0419 16.3221 73.0419 16.4227C73.0419 16.5233 73.0776 16.6207 73.1427 16.6974C73.2078 16.7742 73.2981 16.8253 73.3973 16.8417C73.4511 16.8413 73.5042 16.8302 73.5536 16.8089C73.603 16.7877 73.6476 16.7567 73.6848 16.718C73.7221 16.6792 73.7511 16.6333 73.7703 16.5831C73.7894 16.5328 73.7983 16.4793 73.7965 16.4256C73.7987 16.371 73.79 16.3165 73.7708 16.2653C73.7516 16.2142 73.7223 16.1674 73.6847 16.1278C73.6471 16.0882 73.6019 16.0566 73.5518 16.0348C73.5017 16.013 73.4477 16.0015 73.3931 16.001L73.3973 16.0038ZM73.3181 16.6945H73.1964V16.1694C73.2629 16.1598 73.3301 16.1546 73.3973 16.1538C73.4602 16.1471 73.5234 16.1615 73.5771 16.1949C73.594 16.2082 73.6076 16.2252 73.6169 16.2446C73.6262 16.2639 73.631 16.2852 73.6309 16.3067C73.6284 16.3365 73.6164 16.3647 73.5969 16.3874C73.5773 16.41 73.551 16.4259 73.5219 16.4326C73.5728 16.4482 73.5983 16.4907 73.6153 16.56C73.6216 16.6046 73.6344 16.648 73.6535 16.6888H73.5247C73.5042 16.6483 73.4904 16.6049 73.4837 16.56C73.4738 16.5062 73.4426 16.4807 73.3747 16.4807H73.3181V16.6945ZM73.3181 16.4001H73.3747C73.4426 16.4001 73.4964 16.3774 73.4964 16.3237C73.4964 16.2699 73.461 16.243 73.3846 16.243C73.3622 16.2429 73.3399 16.2452 73.3181 16.2501V16.4001Z" fill="white"/>
</g>
<defs>
<clipPath id="clip0_2914_11024">
<rect width="81.83" height="89.2292" fill="white" transform="translate(7 3)"/>
</clipPath>
</defs>
</svg>
