<svg id="CF_L2" data-name="CF L2" xmlns="http://www.w3.org/2000/svg" viewBox="0 0 578.18 630.46"><defs><style>.cls-1{fill:#1a1a1a;}.cls-2{fill:#fff;}.cls-3{fill:none;stroke:#6d6d6d;stroke-miterlimit:10;stroke-width:6px;}.cls-4{fill:#6d6d6d;}</style></defs><title>CF_L2</title><g id="_04_-_BADGE_BG" data-name="04 - BADGE BG"><g id="Shield"><path class="cls-1" d="M500,801.55S774.41,693,774.41,583.1V201.55H225.59V583.1C225.59,693,500,801.55,500,801.55Z" transform="translate(-210.91 -186.87)"/><path class="cls-1" d="M774.41,201.55V583.1C774.41,693,500,801.55,500,801.55S225.59,693,225.59,583.1V201.55H774.41m14.68-14.68H210.91V583.1c0,51.1,48.57,105.95,144.37,163,68.83,41,136.47,67.94,139.32,69.06l5.4,2.14,5.4-2.14c2.85-1.12,70.49-28.05,139.32-69.06,95.8-57.08,144.37-111.93,144.37-163V186.87Z" transform="translate(-210.91 -186.87)"/><path class="cls-2" d="M765.24,210.72V583.1c0,41.48-45.83,90.73-132.55,142.43C574,760.52,514.58,785.66,500,791.65c-14.58-6-74-31.13-132.69-66.12-86.72-51.7-132.55-100.95-132.55-142.43V210.72H765.24m9.17-9.17H225.59V583.1C225.59,693,500,801.55,500,801.55S774.41,693,774.41,583.1V201.55Z" transform="translate(-210.91 -186.87)"/></g></g><g id="_03_-_ICON" data-name="03 - ICON"><g id="L2"><polygon class="cls-2" points="200.65 268.38 142.25 268.38 142.25 471.01 276.75 471.01 276.75 422.89 200.65 422.89 200.65 268.38"/><path class="cls-2" d="M574.6,608.82c20-18,33.33-30.46,39.71-37.14a136.93,136.93,0,0,0,16.45-20.46A74.63,74.63,0,0,0,643.05,509a52.19,52.19,0,0,0-8.73-29.44c-5.78-8.69-14-15.47-24.44-20.16s-22.21-7-35.29-7a115.15,115.15,0,0,0-28.13,3.18,94.47,94.47,0,0,0-23.25,9.24c-7.07,4-15.85,10.66-26.13,19.84l-1.82,1.63,32.56,38.11,1.9-1.65a133.33,133.33,0,0,1,21.15-15.45,36,36,0,0,1,17.63-5c5.38,0,9.55,1.29,12.4,3.83s4.16,5.87,4.16,10.3a27,27,0,0,1-2.28,10.89,63.45,63.45,0,0,1-8.52,13c-4.19,5.21-13.24,15.09-26.86,29.34l-49,49.53v38.68H646.84V608.82Z" transform="translate(-210.91 -186.87)"/></g></g><g id="_02_-_COURSE_INFO" data-name="02 - COURSE INFO"><line id="_02_-_Underline_Long" data-name="02 - Underline Long" class="cls-3" x1="121.79" y1="217.63" x2="456.39" y2="217.63"/><g id="_01_-_CERTIFICATE_COURSE" data-name="01 - CERTIFICATE COURSE"><path class="cls-4" d="M342.85,375.86a3.69,3.69,0,0,0-3.22,1.69,8.17,8.17,0,0,0-1.16,4.66q0,6.19,4.71,6.19a9.78,9.78,0,0,0,2.75-.4,26.87,26.87,0,0,0,2.68-.95v4.89a14.86,14.86,0,0,1-6.06,1.19q-4.86,0-7.44-2.81t-2.58-8.13a12.92,12.92,0,0,1,1.25-5.85,8.88,8.88,0,0,1,3.6-3.87,10.82,10.82,0,0,1,5.53-1.36,15.18,15.18,0,0,1,6.64,1.51l-1.78,4.56a18,18,0,0,0-2.37-.94A8.11,8.11,0,0,0,342.85,375.86Z" transform="translate(-210.91 -186.87)"/><path class="cls-4" d="M366.79,392.83H354.07V371.42h12.72v4.64h-6.93v3.37h6.42v4.65h-6.42v4h6.93Z" transform="translate(-210.91 -186.87)"/><path class="cls-4" d="M378.1,385v7.79h-5.78V371.42h7q8.73,0,8.73,6.33a6.31,6.31,0,0,1-3.63,5.75l6.24,9.33h-6.56L379.57,385Zm0-4.35h1.09c2,0,3-.89,3-2.68,0-1.47-1-2.21-3-2.21H378.1Z" transform="translate(-210.91 -186.87)"/><path class="cls-4" d="M403.38,392.83h-5.79V376.15h-5.23v-4.73h16.23v4.73h-5.21Z" transform="translate(-210.91 -186.87)"/><path class="cls-4" d="M413,392.83V371.42h5.81v21.41Z" transform="translate(-210.91 -186.87)"/><path class="cls-4" d="M430.53,392.83h-5.7V371.42h12.66v4.64h-7v4.09H437v4.64h-6.42Z" transform="translate(-210.91 -186.87)"/><path class="cls-4" d="M442.47,392.83V371.42h5.82v21.41Z" transform="translate(-210.91 -186.87)"/><path class="cls-4" d="M463.85,375.86a3.69,3.69,0,0,0-3.22,1.69,8.17,8.17,0,0,0-1.16,4.66q0,6.19,4.71,6.19a9.78,9.78,0,0,0,2.75-.4,26.87,26.87,0,0,0,2.68-.95v4.89a14.86,14.86,0,0,1-6.06,1.19c-3.24,0-5.71-.94-7.44-2.81s-2.58-4.59-2.58-8.13a13.05,13.05,0,0,1,1.25-5.85,9,9,0,0,1,3.6-3.87,10.82,10.82,0,0,1,5.53-1.36,15.18,15.18,0,0,1,6.64,1.51l-1.77,4.56a18.07,18.07,0,0,0-2.38-.94A8.11,8.11,0,0,0,463.85,375.86Z" transform="translate(-210.91 -186.87)"/><path class="cls-4" d="M488.79,392.83l-1.06-4h-7l-1.09,4h-6.36l7-21.5H488l7.08,21.5Zm-2.26-8.75-.92-3.52q-.33-1.17-.78-3c-.31-1.24-.51-2.13-.61-2.67-.09.5-.26,1.32-.52,2.46s-.83,3.4-1.72,6.76Z" transform="translate(-210.91 -186.87)"/><path class="cls-4" d="M506.69,392.83H500.9V376.15h-5.23v-4.73H511.9v4.73h-5.21Z" transform="translate(-210.91 -186.87)"/><path class="cls-4" d="M529,392.83H516.26V371.42H529v4.64H522v3.37h6.42v4.65H522v4H529Z" transform="translate(-210.91 -186.87)"/><path class="cls-4" d="M553.05,375.86a3.67,3.67,0,0,0-3.22,1.69,8.17,8.17,0,0,0-1.16,4.66q0,6.19,4.7,6.19a9.8,9.8,0,0,0,2.76-.4,26.87,26.87,0,0,0,2.68-.95v4.89a14.87,14.87,0,0,1-6.07,1.19q-4.85,0-7.43-2.81c-1.72-1.88-2.59-4.59-2.59-8.13a12.92,12.92,0,0,1,1.26-5.85,8.88,8.88,0,0,1,3.6-3.87,10.82,10.82,0,0,1,5.53-1.36,15.21,15.21,0,0,1,6.64,1.51L558,377.18a18,18,0,0,0-2.37-.94A8.11,8.11,0,0,0,553.05,375.86Z" transform="translate(-210.91 -186.87)"/><path class="cls-4" d="M583.94,382.1c0,3.6-.89,6.34-2.65,8.22s-4.36,2.81-7.77,2.81-5.93-.94-7.73-2.83-2.68-4.63-2.68-8.23.89-6.29,2.67-8.17,4.37-2.82,7.77-2.82,6,.93,7.75,2.8S583.94,378.48,583.94,382.1Zm-14.74,0q0,6.21,4.32,6.21a3.7,3.7,0,0,0,3.26-1.51,8.25,8.25,0,0,0,1.06-4.7,8.39,8.39,0,0,0-1.07-4.74,3.68,3.68,0,0,0-3.22-1.53Q569.2,375.83,569.2,382.1Z" transform="translate(-210.91 -186.87)"/><path class="cls-4" d="M607.31,371.42v12.89a8.64,8.64,0,0,1-2.38,6.51q-2.37,2.31-6.86,2.31t-6.73-2.24a8.5,8.5,0,0,1-2.35-6.45v-13h5.81V384a5.17,5.17,0,0,0,.85,3.29,3.66,3.66,0,0,0,5.08,0,5.47,5.47,0,0,0,.8-3.33V371.42Z" transform="translate(-210.91 -186.87)"/><path class="cls-4" d="M619.06,385v7.79h-5.79V371.42h7q8.73,0,8.73,6.33a6.3,6.3,0,0,1-3.64,5.75l6.24,9.33h-6.56L620.52,385Zm0-4.35h1.08c2,0,3-.89,3-2.68,0-1.47-1-2.21-3-2.21h-1.14Z" transform="translate(-210.91 -186.87)"/><path class="cls-4" d="M649.77,386.33a6.28,6.28,0,0,1-1,3.54,6.57,6.57,0,0,1-2.91,2.4,10.83,10.83,0,0,1-4.47.86,18.17,18.17,0,0,1-3.59-.3,13.21,13.21,0,0,1-3-1.05v-5.16a17.12,17.12,0,0,0,3.44,1.33,12.69,12.69,0,0,0,3.28.48,3.17,3.17,0,0,0,1.89-.45,1.38,1.38,0,0,0,.6-1.15,1.28,1.28,0,0,0-.24-.77,2.86,2.86,0,0,0-.78-.67c-.36-.22-1.3-.68-2.85-1.37a13.86,13.86,0,0,1-3.14-1.85,5.53,5.53,0,0,1-1.55-2.05,6.73,6.73,0,0,1-.51-2.74,5.47,5.47,0,0,1,2.16-4.61,9.42,9.42,0,0,1,5.91-1.66,16.58,16.58,0,0,1,6.79,1.54L648,377.12a12.81,12.81,0,0,0-5.18-1.38,2.65,2.65,0,0,0-1.64.4,1.18,1.18,0,0,0-.52,1,1.43,1.43,0,0,0,.66,1.13,25.14,25.14,0,0,0,3.53,1.81,9.81,9.81,0,0,1,3.85,2.67A5.83,5.83,0,0,1,649.77,386.33Z" transform="translate(-210.91 -186.87)"/><path class="cls-4" d="M667.47,392.83H654.76V371.42h12.71v4.64h-6.92v3.37H667v4.65h-6.41v4h6.92Z" transform="translate(-210.91 -186.87)"/></g></g><g id="_01_-_CrossFit_Logo" data-name="01 - CrossFit Logo"><path class="cls-2" d="M351.34,345.83c-14.6,0-24.44-9.69-24.44-18.82V271.14c0-9.13,9.84-18.81,24.44-18.81,14.38,0,23.79,9.68,23.79,18.81v17.35H355.45V273.84a3.83,3.83,0,0,0-4.11-3.83c-2.49,0-4.32,1.47-4.32,3.83v50.47c0,2.37,1.83,3.83,4.32,3.83a3.82,3.82,0,0,0,4.11-3.83V309.67h19.68V327C375.13,336.14,365.72,345.83,351.34,345.83Z" transform="translate(-210.91 -186.87)"/><path class="cls-2" d="M399.79,304.29v39.85h-19v-67.7h18l1.18,7.09c2.81-4.17,6.71-7.09,15.47-7.09v16C404.87,292.43,399.79,298.21,399.79,304.29Z" transform="translate(-210.91 -186.87)"/><path class="cls-2" d="M442.28,345.26c-12.76,0-23.14-6.53-23.14-16.56V293.11c0-10.14,10.38-16.67,23.14-16.67s23.14,6.53,23.14,16.67V328.7C465.42,338.73,455,345.26,442.28,345.26Zm4.11-51.37c0-2.25-1.84-3.26-4.11-3.26s-4,1-4,3.26V327.8c0,2.25,1.73,3.27,4,3.27s4.11-1,4.11-3.27Z" transform="translate(-210.91 -186.87)"/><path class="cls-2" d="M492.67,345.26c-13.95,0-22.28-6.53-22.28-16.56v-6.87H487.8v5.75c0,2.25,1.74,3.83,4.55,3.83s4.43-1.13,4.43-5c0-6-4.43-7.77-14.49-13.07-9.41-4.73-11.57-11.37-11.57-18.59,0-13.85,10-18.35,21.95-18.35,12.87,0,21.74,6.53,21.74,16.67v6.31H497.1v-5.19c0-2.25-1.19-3.6-4-3.6-3,0-4.43,1.35-4.43,4.62,0,4.95,2.81,5.4,10.16,9.24,13.74,6.87,15.9,15.42,15.9,22.52C514.73,336.48,508.35,345.26,492.67,345.26Z" transform="translate(-210.91 -186.87)"/><path class="cls-2" d="M541.22,345.26c-14,0-22.27-6.53-22.27-16.56v-6.87h17.41v5.75c0,2.25,1.73,3.83,4.54,3.83s4.43-1.13,4.43-5c0-6-4.43-7.77-14.49-13.07-9.41-4.73-11.57-11.37-11.57-18.59,0-13.85,10.06-18.35,22-18.35,12.87,0,21.74,6.53,21.74,16.67v6.31h-17.3v-5.19c0-2.25-1.19-3.6-4-3.6-3,0-4.44,1.35-4.44,4.62,0,4.95,2.81,5.4,10.17,9.24,13.73,6.87,15.89,15.42,15.89,22.52C563.28,336.48,556.9,345.26,541.22,345.26Z" transform="translate(-210.91 -186.87)"/><path class="cls-2" d="M588.48,270v20.51h14.38v16.67H588.48v36.95h-19.9V254h39.15v16Z" transform="translate(-210.91 -186.87)"/><path class="cls-2" d="M612.26,270V254h19.15v16Zm0,74.15V277.67h19.15v66.47Z" transform="translate(-210.91 -186.87)"/><path class="cls-2" d="M663.26,291.19v34.47c0,1.92,1.83,3.27,4,3.27h5v15.21h-9.08c-12.11,0-18.93-8.34-18.93-16.9V291.19H636V277.67h8.21V266.18h19v11.49h9.84v13.52Z" transform="translate(-210.91 -186.87)"/><path class="cls-2" d="M680.05,278a3.72,3.72,0,1,1,0,7.44,3.72,3.72,0,1,1,0-7.44Zm0,.75a3,3,0,0,0,0,5.92,2.84,2.84,0,0,0,2.82-2.94,2.88,2.88,0,0,0-2.85-3Zm-.56,4.88h-.86v-3.71a10.93,10.93,0,0,1,1.42-.11,2,2,0,0,1,1.27.29,1,1,0,0,1,.38.79,1,1,0,0,1-.77.89v0c.36.11.54.41.66.9a3.2,3.2,0,0,0,.27.91h-.91a3,3,0,0,1-.29-.91c-.07-.38-.29-.56-.77-.56h-.4Zm0-2.08h.4c.48,0,.86-.16.86-.54s-.25-.57-.79-.57a2.13,2.13,0,0,0-.47.05Z" transform="translate(-210.91 -186.87)"/></g></svg>